<?xml version="1.0" encoding="us-ascii" standalone="no"?><svg xmlns="http://www.w3.org/2000/svg" xmlns:xlink="http://www.w3.org/1999/xlink" contentStyleType="text/css" height="493px" preserveAspectRatio="none" style="width:392px;height:493px;background:#FFFFFF;" version="1.1" viewBox="0 0 392 493" width="392px" zoomAndPan="magnify"><defs/><g><!--class ItemType--><g id="elem_ItemType"><rect codeLine="5" fill="#F1F1F1" height="77.2422" id="ItemType" rx="2.5" ry="2.5" style="stroke:#181818;stroke-width:0.5;" width="90" x="211" y="7"/><ellipse cx="226" cy="23" fill="#EB937F" rx="11" ry="11" style="stroke:#181818;stroke-width:1.0;"/><path d="M224.8594,23.7969 L224.8594,26.2969 L229.1875,26.2969 L229.1875,25.375 Q229.1875,24.7656 229.4219,24.5 Q229.6719,24.2344 230.0469,24.2344 Q230.4219,24.2344 230.6563,24.5 Q230.8906,24.7656 230.8906,25.375 L230.8906,28 L222.8906,28 Q222.2656,28 222,27.7656 Q221.75,27.5313 221.75,27.1406 Q221.75,26.7656 222.0156,26.5313 Q222.2813,26.2969 222.8906,26.2969 L223.1563,26.2969 L223.1563,19.6406 L222.8906,19.6406 Q222.2656,19.6406 222,19.4063 Q221.75,19.1719 221.75,18.7813 Q221.75,18.4063 222,18.1719 Q222.2656,17.9375 222.8906,17.9375 L230.5156,17.9375 L230.5156,20.5313 Q230.5156,21.1406 230.2813,21.4063 Q230.0625,21.6563 229.6719,21.6563 Q229.2969,21.6563 229.0625,21.4063 Q228.8281,21.1406 228.8281,20.5313 L228.8281,19.6406 L224.8594,19.6406 L224.8594,22.0938 L226.3438,22.0938 Q226.3438,21.4375 226.4688,21.25 Q226.7344,20.8438 227.2031,20.8438 Q227.5781,20.8438 227.8125,21.1094 Q228.0469,21.3594 228.0469,21.9688 L228.0469,23.9375 Q228.0469,24.4844 227.9219,24.6719 Q227.6563,25.0625 227.2031,25.0625 Q226.7344,25.0625 226.4688,24.6563 Q226.3438,24.4688 226.3438,23.7969 L224.8594,23.7969 Z " fill="#000000"/><text fill="#000000" font-family="sans-serif" font-size="14" lengthAdjust="spacing" textLength="58" x="240" y="28.7969">ItemType</text><line style="stroke:#181818;stroke-width:0.5;" x1="212" x2="300" y1="39" y2="39"/><text fill="#000000" font-family="sans-serif" font-size="14" lengthAdjust="spacing" textLength="51" x="217" y="58.1074">Element</text><text fill="#000000" font-family="sans-serif" font-size="14" lengthAdjust="spacing" textLength="23" x="217" y="76.7285">Box</text></g><!--class AItem--><g id="elem_AItem"><rect codeLine="11" fill="#F1F1F1" height="159.7266" id="AItem" rx="2.5" ry="2.5" style="stroke:#181818;stroke-width:0.5;" width="258" x="127" y="144"/><ellipse cx="233.75" cy="160" fill="#A9DCDF" rx="11" ry="11" style="stroke:#181818;stroke-width:1.0;"/><path d="M235.9375,161.7656 L231.7969,161.7656 L231.375,162.7969 L231.7969,162.7969 Q232.4063,162.7969 232.6719,163.0313 Q232.9375,163.2656 232.9375,163.6563 Q232.9375,164.0313 232.6719,164.2656 Q232.4063,164.5 231.7969,164.5 L229.5,164.5 Q228.8906,164.5 228.6406,164.2656 Q228.375,164.0313 228.375,163.6406 Q228.375,163.2656 228.6563,163.0313 Q228.9219,162.7813 229.5469,162.7969 L232.2188,156.1406 L231.1094,156.1406 Q230.5,156.1406 230.2344,155.9063 Q229.9688,155.6719 229.9688,155.2813 Q229.9688,154.9063 230.2344,154.6719 Q230.5,154.4375 231.1094,154.4375 L234.7813,154.4375 L238.1719,162.7969 Q238.7656,162.7969 238.9531,162.9375 Q239.3438,163.2031 239.3438,163.6563 Q239.3438,164.0313 239.0781,164.2656 Q238.8281,164.5 238.2188,164.5 L235.9219,164.5 Q235.3125,164.5 235.0469,164.2656 Q234.7813,164.0313 234.7813,163.6406 Q234.7813,163.2656 235.0469,163.0313 Q235.3125,162.7969 235.9219,162.7969 L236.3438,162.7969 L235.9375,161.7656 Z M235.2188,160.0625 L233.8594,156.6875 L232.4844,160.0625 L235.2188,160.0625 Z " fill="#000000"/><text fill="#000000" font-family="sans-serif" font-size="14" font-style="italic" lengthAdjust="spacing" textLength="36" x="254.25" y="165.7969">AItem</text><line style="stroke:#181818;stroke-width:0.5;" x1="128" x2="384" y1="176" y2="176"/><rect fill="none" height="6" style="stroke:#C82930;stroke-width:1.0;" width="6" x="135" y="187.8105"/><text fill="#000000" font-family="sans-serif" font-size="14" lengthAdjust="spacing" textLength="82" x="147" y="195.1074">name : string</text><rect fill="none" height="6" style="stroke:#C82930;stroke-width:1.0;" width="6" x="135" y="206.4316"/><text fill="#000000" font-family="sans-serif" font-size="14" lengthAdjust="spacing" textLength="97" x="147" y="213.7285">type : ItemType</text><line style="stroke:#181818;stroke-width:0.5;" x1="128" x2="384" y1="221.2422" y2="221.2422"/><polygon fill="#FFFF44" points="138,231.0527,142,235.0527,138,239.0527,134,235.0527" style="stroke:#B38D22;stroke-width:1.0;"/><text fill="#000000" font-family="sans-serif" font-size="14" lengthAdjust="spacing" textLength="232" x="147" y="240.3496">AItem(name : string, type : ItemType)</text><text fill="#000000" font-family="sans-serif" font-size="14" lengthAdjust="spacing" textLength="4" x="147" y="258.9707">&#160;</text><ellipse cx="138" cy="273.2949" fill="#84BE84" rx="3" ry="3" style="stroke:#038048;stroke-width:1.0;"/><text fill="#000000" font-family="sans-serif" font-size="14" lengthAdjust="spacing" textLength="116" x="147" y="277.5918">GetName() : string</text><ellipse cx="138" cy="291.916" fill="#84BE84" rx="3" ry="3" style="stroke:#038048;stroke-width:1.0;"/><text fill="#000000" font-family="sans-serif" font-size="14" lengthAdjust="spacing" textLength="135" x="147" y="296.2129">GetType() : ItemType</text></g><!--class Item--><g id="elem_Item"><rect codeLine="22" fill="#F1F1F1" height="58.6211" id="Item" rx="2.5" ry="2.5" style="stroke:#181818;stroke-width:0.5;" width="144" x="7" y="395.5"/><ellipse cx="61.75" cy="411.5" fill="#ADD1B2" rx="11" ry="11" style="stroke:#181818;stroke-width:1.0;"/><path d="M64.5156,407.375 Q64.6719,407.1563 64.8594,407.0469 Q65.0469,406.9375 65.2656,406.9375 Q65.6406,406.9375 65.875,407.2031 Q66.1094,407.4531 66.1094,408.0625 L66.1094,409.5156 Q66.1094,410.125 65.875,410.3906 Q65.6406,410.6563 65.2656,410.6563 Q64.9219,410.6563 64.7188,410.4531 Q64.5156,410.2656 64.4063,409.75 Q64.3594,409.3906 64.1719,409.2031 Q63.8438,408.8281 63.2344,408.6094 Q62.625,408.3906 62,408.3906 Q61.2344,408.3906 60.5938,408.7188 Q59.9688,409.0469 59.4688,409.7969 Q58.9844,410.5469 58.9844,411.5781 L58.9844,412.6719 Q58.9844,413.9063 59.875,414.7344 Q60.7656,415.5469 62.3594,415.5469 Q63.2969,415.5469 63.9531,415.2969 Q64.3438,415.1406 64.7656,414.7031 Q65.0313,414.4375 65.1719,414.3594 Q65.3281,414.2813 65.5313,414.2813 Q65.8594,414.2813 66.1094,414.5469 Q66.375,414.7969 66.375,415.1406 Q66.375,415.4844 66.0313,415.8906 Q65.5313,416.4688 64.7344,416.7969 Q63.6563,417.25 62.3594,417.25 Q60.8438,417.25 59.6406,416.625 Q58.6563,416.125 57.9688,415.0625 Q57.2813,413.9844 57.2813,412.7031 L57.2813,411.5469 Q57.2813,410.2188 57.8906,409.0781 Q58.5156,407.9219 59.6094,407.3125 Q60.7031,406.6875 61.9375,406.6875 Q62.6719,406.6875 63.3125,406.8594 Q63.9688,407.0156 64.5156,407.375 Z " fill="#000000"/><text fill="#000000" font-family="sans-serif" font-size="14" lengthAdjust="spacing" textLength="26" x="82.25" y="417.2969">Item</text><line style="stroke:#181818;stroke-width:0.5;" x1="8" x2="150" y1="427.5" y2="427.5"/><ellipse cx="18" cy="442.3105" fill="#84BE84" rx="3" ry="3" style="stroke:#038048;stroke-width:1.0;"/><text fill="#000000" font-family="sans-serif" font-size="14" lengthAdjust="spacing" textLength="118" x="27" y="446.6074">Item(name : string)</text></g><!--class List--><g id="elem_List"><rect codeLine="28" fill="#F1F1F1" height="122.4844" id="List" rx="2.5" ry="2.5" style="stroke:#181818;stroke-width:0.5;" width="140" x="186" y="364"/><ellipse cx="240.75" cy="380" fill="#ADD1B2" rx="11" ry="11" style="stroke:#181818;stroke-width:1.0;"/><path d="M243.5156,375.875 Q243.6719,375.6563 243.8594,375.5469 Q244.0469,375.4375 244.2656,375.4375 Q244.6406,375.4375 244.875,375.7031 Q245.1094,375.9531 245.1094,376.5625 L245.1094,378.0156 Q245.1094,378.625 244.875,378.8906 Q244.6406,379.1563 244.2656,379.1563 Q243.9219,379.1563 243.7188,378.9531 Q243.5156,378.7656 243.4063,378.25 Q243.3594,377.8906 243.1719,377.7031 Q242.8438,377.3281 242.2344,377.1094 Q241.625,376.8906 241,376.8906 Q240.2344,376.8906 239.5938,377.2188 Q238.9688,377.5469 238.4688,378.2969 Q237.9844,379.0469 237.9844,380.0781 L237.9844,381.1719 Q237.9844,382.4063 238.875,383.2344 Q239.7656,384.0469 241.3594,384.0469 Q242.2969,384.0469 242.9531,383.7969 Q243.3438,383.6406 243.7656,383.2031 Q244.0313,382.9375 244.1719,382.8594 Q244.3281,382.7813 244.5313,382.7813 Q244.8594,382.7813 245.1094,383.0469 Q245.375,383.2969 245.375,383.6406 Q245.375,383.9844 245.0313,384.3906 Q244.5313,384.9688 243.7344,385.2969 Q242.6563,385.75 241.3594,385.75 Q239.8438,385.75 238.6406,385.125 Q237.6563,384.625 236.9688,383.5625 Q236.2813,382.4844 236.2813,381.2031 L236.2813,380.0469 Q236.2813,378.7188 236.8906,377.5781 Q237.5156,376.4219 238.6094,375.8125 Q239.7031,375.1875 240.9375,375.1875 Q241.6719,375.1875 242.3125,375.3594 Q242.9688,375.5156 243.5156,375.875 Z " fill="#000000"/><text fill="#000000" font-family="sans-serif" font-size="14" lengthAdjust="spacing" textLength="22" x="261.25" y="385.7969">List</text><line style="stroke:#181818;stroke-width:0.5;" x1="187" x2="325" y1="396" y2="396"/><rect fill="none" height="6" style="stroke:#C82930;stroke-width:1.0;" width="6" x="194" y="407.8105"/><text fill="#000000" font-family="sans-serif" font-size="14" lengthAdjust="spacing" textLength="72" x="206" y="415.1074">list[] : AItem</text><line style="stroke:#181818;stroke-width:0.5;" x1="187" x2="325" y1="422.6211" y2="422.6211"/><ellipse cx="197" cy="437.4316" fill="#84BE84" rx="3" ry="3" style="stroke:#038048;stroke-width:1.0;"/><text fill="#000000" font-family="sans-serif" font-size="14" lengthAdjust="spacing" textLength="114" x="206" y="441.7285">List(name : string)</text><text fill="#000000" font-family="sans-serif" font-size="14" lengthAdjust="spacing" textLength="4" x="206" y="460.3496">&#160;</text><ellipse cx="197" cy="474.6738" fill="#84BE84" rx="3" ry="3" style="stroke:#038048;stroke-width:1.0;"/><text fill="#000000" font-family="sans-serif" font-size="14" lengthAdjust="spacing" textLength="110" x="206" y="478.9707">GetList() : AItem[]</text></g><!--reverse link ItemType to AItem--><g id="link_ItemType_AItem"><path codeLine="10" d="M256,97.65 C256,112.09 256,128.16 256,143.84 " fill="none" id="ItemType-backto-AItem" style="stroke:#181818;stroke-width:1.0;"/><polygon fill="#181818" points="256,84.36,252,90.36,256,96.36,260,90.36,256,84.36" style="stroke:#181818;stroke-width:1.0;"/></g><!--reverse link AItem to Item--><g id="link_AItem_Item"><path codeLine="21" d="M172.02,319.42 C147.51,346.98 122.54,375.05 104.65,395.16 " fill="none" id="AItem-backto-Item" style="stroke:#181818;stroke-width:1.0;"/><polygon fill="none" points="167.01,314.51,185.54,304.22,177.47,323.82,167.01,314.51" style="stroke:#181818;stroke-width:1.0;"/></g><!--reverse link AItem to List--><g id="link_AItem_List"><path codeLine="26" d="M243.25,324.47 C243.25,337.89 243.56,351.31 244.18,363.76 " fill="none" id="AItem-backto-List" style="stroke:#181818;stroke-width:1.0;"/><polygon fill="none" points="236.25,324.14,243.49,304.22,250.25,324.3,236.25,324.14" style="stroke:#181818;stroke-width:1.0;"/></g><!--reverse link AItem to List--><g id="link_AItem_List"><path codeLine="27" d="M269.47,317.36 C269.61,333.12 269.29,349.11 268.52,363.76 " fill="none" id="AItem-backto-List-1" style="stroke:#181818;stroke-width:1.0;"/><polygon fill="none" points="269.25,304.22,265.3561,310.2894,269.461,316.2181,273.3549,310.1488,269.25,304.22" style="stroke:#181818;stroke-width:1.0;"/></g><!--SRC=[PP11Yy9038Nl-HM1FMXNQ-zbBxkmY22Ul8c7iGOjJAQb4q5H_xkP6QrizvRalNnvCwEZIElBecYjSN9YEwiQBYfhlC_tjJbqXW6EzPwGk9KBCl6EEWz0xiIu4EBrfIMymgyb9YVmqvpX3j0hdtcEtw43i_FIcKemqjDG5tDqXWbBLBLs1-qbx9Kz7E0ZcST_ZDEXBmEOu9nafQvnzWR6OJ34OK_La2d2rqqZneGfs3FN1F_Vp0PRozhBiszUROA4CZxEQh7PAY5zWcA3DCIca579NjxDLgyz0000]--></g></svg>